<?xml version="1.0" encoding="UTF-8" standalone="no"?>
<!-- Created with Inkscape (http://www.inkscape.org/) -->

<svg
   width="1280"
   height="640"
   viewBox="0 0 338.66665 169.33333"
   version="1.1"
   id="svg5"
   inkscape:version="1.1.1 (3bf5ae0d25, 2021-09-20)"
   sodipodi:docname="wattle-logo-dark.svg"
   inkscape:export-filename="/home/cmcging/wattle-logo.png"
   inkscape:export-xdpi="96"
   inkscape:export-ydpi="96"
   xmlns:inkscape="http://www.inkscape.org/namespaces/inkscape"
   xmlns:sodipodi="http://sodipodi.sourceforge.net/DTD/sodipodi-0.dtd"
   xmlns="http://www.w3.org/2000/svg"
   xmlns:svg="http://www.w3.org/2000/svg">
  <sodipodi:namedview
     id="namedview7"
     pagecolor="#ffffff"
     bordercolor="#000000"
     borderopacity="1"
     inkscape:pageshadow="0"
     inkscape:pageopacity="0"
     inkscape:pagecheckerboard="false"
     inkscape:document-units="mm"
     showgrid="true"
     width="512mm"
     units="px"
     inkscape:zoom="0.74543963"
     inkscape:cx="590.92646"
     inkscape:cy="490.31469"
     inkscape:window-width="2240"
     inkscape:window-height="1331"
     inkscape:window-x="0"
     inkscape:window-y="0"
     inkscape:window-maximized="1"
     inkscape:current-layer="text38584">
    <inkscape:grid
       type="xygrid"
       id="grid50548" />
  </sodipodi:namedview>
  <defs
     id="defs2">
    <inkscape:path-effect
       effect="copy_rotate"
       starting_point="74.494025,300"
       origin="50,300"
       id="path-effect4849"
       is_visible="true"
       lpeversion="1"
       method="normal"
       num_copies="6"
       starting_angle="0"
       rotation_angle="60"
       gap="-0.01"
       copies_to_360="true"
       mirror_copies="false"
       split_items="false" />
    <inkscape:path-effect
       effect="skeletal"
       id="path-effect3994"
       is_visible="true"
       lpeversion="1"
       pattern="M 438.35509,202.0834 A 116.33752,121.05642 0 0 1 322.01758,323.13982 116.33752,121.05642 0 0 1 205.68006,202.0834 116.33752,121.05642 0 0 1 322.01758,81.026985 116.33752,121.05642 0 0 1 438.35509,202.0834 Z"
       copytype="single_stretched"
       prop_scale="1"
       scale_y_rel="false"
       spacing="0"
       normal_offset="0"
       tang_offset="0"
       prop_units="false"
       vertical_pattern="false"
       hide_knot="false"
       fuse_tolerance="0" />
    <inkscape:path-effect
       effect="skeletal"
       id="path-effect3405"
       is_visible="true"
       lpeversion="1"
       pattern="m 443.43484,331.22705 a 66.928642,63.277805 0 0 1 -66.92864,63.2778 66.928642,63.277805 0 0 1 -66.92864,-63.2778 66.928642,63.277805 0 0 1 66.92864,-63.27781 66.928642,63.277805 0 0 1 66.92864,63.27781 z"
       copytype="single_stretched"
       prop_scale="1"
       scale_y_rel="false"
       spacing="0"
       normal_offset="0"
       tang_offset="0"
       prop_units="false"
       vertical_pattern="false"
       hide_knot="false"
       fuse_tolerance="0" />
    <inkscape:path-effect
       effect="ruler"
       id="path-effect3403"
       is_visible="true"
       lpeversion="1"
       unit="px"
       mark_distance="20"
       mark_length="14"
       minor_mark_length="7"
       major_mark_steps="5"
       shift="0"
       offset="0"
       mark_dir="left"
       border_marks="both" />
    <inkscape:path-effect
       effect="skeletal"
       id="path-effect1784"
       is_visible="true"
       lpeversion="1"
       pattern="m 443.43484,331.22705 a 66.928642,63.277805 0 0 1 -66.92864,63.2778 66.928642,63.277805 0 0 1 -66.92864,-63.2778 66.928642,63.277805 0 0 1 66.92864,-63.27781 66.928642,63.277805 0 0 1 66.92864,63.27781 z"
       copytype="repeated_stretched"
       prop_scale="1"
       scale_y_rel="false"
       spacing="0"
       normal_offset="0"
       tang_offset="0"
       prop_units="false"
       vertical_pattern="false"
       hide_knot="false"
       fuse_tolerance="0" />
  </defs>
  <g
     inkscape:label="Layer 1"
     inkscape:groupmode="layer"
     id="layer1">
    <g
       id="g4839"
       transform="translate(-2.9551012,0.18940031)">
      <g
         id="g36776"
         transform="matrix(0.58345746,0,0,0.58345746,-96.421592,-59.430934)">
        <path
           style="fill:#009900"
           d="m 216.0495,204.91864 c -2.84124,-4.51724 -5.46058,-9.18725 -9.02792,-13.199 -1.99735,-2.24616 -4.12677,-4.55809 -6.65597,-6.21547 -3.42054,-2.24145 -8.13817,-3.13273 -12.12598,-2.19122 -1.43743,0.33937 -2.81928,0.82929 -4.1388,1.49013 -0.33386,0.1672 -0.66256,0.34329 -0.99235,0.51795 -0.15131,0.0801 -0.58803,0.34991 -0.44776,0.25172 0.45863,-0.32104 1.27835,1.62505 1.42801,1.90563 1.53986,2.887 3.04643,5.85605 4.90121,8.55676 0.24877,0.36222 0.50411,0.71995 0.76241,1.07544 5.78459,7.96111 16.20915,11.96554 26.29715,7.80806"
           id="path35210"
           sodipodi:nodetypes="csssssssssc" />
        <path
           style="fill:none;stroke:#006600;stroke-width:2.6;stroke-linecap:butt;stroke-linejoin:miter;stroke-miterlimit:4;stroke-dasharray:none;stroke-opacity:1"
           d="M 238.56041,342.52946 C 222.55875,321.0635 208.23697,296.70184 205.95829,269.464 c -1.62161,-23.72202 2.67914,-47.68867 11.93627,-69.56584 1.59223,-3.85165 3.31374,-7.64963 5.15138,-11.39033"
           id="path31614" />
        <path
           style="fill:none;stroke:#006600;stroke-width:2.565;stroke-linecap:butt;stroke-linejoin:miter;stroke-miterlimit:4;stroke-dasharray:none;stroke-opacity:1"
           d="m 221.60388,316.68377 c -12.61819,-18.14318 -13.56037,-44.76276 -5.14775,-64.40465 3.16982,-6.96448 6.73074,-13.7239 10.08263,-20.60156 4.48669,-8.18799 10.29381,-15.76509 17.67768,-21.54745"
           id="path31616"
           sodipodi:nodetypes="csss" />
        <circle
           style="fill:#ffcc00;fill-opacity:1;stroke:none;stroke-width:2.565;stroke-miterlimit:4;stroke-dasharray:none"
           id="path34749"
           cx="223.04594"
           cy="188.50783"
           r="10.90208" />
        <circle
           style="fill:#ffcc00;fill-opacity:1;stroke:none;stroke-width:2.565;stroke-miterlimit:4;stroke-dasharray:none"
           id="path34751"
           cx="211.94701"
           cy="168.99173"
           r="9.6733475" />
        <ellipse
           style="fill:#ffcc00;fill-opacity:1;stroke:none;stroke-width:3.70422;stroke-miterlimit:4;stroke-dasharray:none"
           id="path34753"
           cx="233.08275"
           cy="168.87109"
           rx="10.873439"
           ry="10.693526" />
        <circle
           style="fill:#ffcc00;fill-opacity:1;stroke:none;stroke-width:2.565;stroke-miterlimit:4;stroke-dasharray:none"
           id="path34755"
           cx="221.91887"
           cy="148.59137"
           r="9.8290558" />
        <circle
           style="fill:#ffcc00;fill-opacity:1;stroke:none;stroke-width:2.565;stroke-miterlimit:4;stroke-dasharray:none"
           id="path34859"
           cx="235.98112"
           cy="153.54018"
           r="2.770498" />
        <path
           style="fill:#009900;stroke:none;stroke-width:0.264583px;stroke-linecap:butt;stroke-linejoin:miter;stroke-opacity:1"
           d="m 239.55276,213.39387 c 4.4276,-1.59205 11.21271,-0.90829 15.67898,0.38032 3.15828,0.91891 6.15761,2.56313 8.32097,5.08361 1.56668,1.6857 2.81682,3.62788 3.84621,5.67938 0.47468,0.76094 1.77877,2.25698 -0.0315,2.15721 -4.9968,0.78532 -10.31527,0.62454 -14.96489,-1.54967 -4.24082,-2.00331 -8.23371,-4.76264 -11.13857,-8.48737 -0.79614,-0.96262 -1.22496,-2.13121 -1.7112,-3.26348"
           id="path35214"
           sodipodi:nodetypes="cccccccc" />
        <path
           style="fill:#66cc33;stroke:none;stroke-width:0.264583px;stroke-linecap:butt;stroke-linejoin:miter;stroke-opacity:1"
           d="m 239.55276,213.39387 c -1.23533,-9.78305 11.37988,-20.44821 21.20417,-19.80237 1.25035,8.04911 -1.99637,12.24152 -6.85095,16.65347 -4.72638,2.57383 -9.11919,5.98351 -14.35323,3.14887"
           id="path35212"
           sodipodi:nodetypes="cccc" />
      </g>
      <g
         aria-label="WattleScript"
         id="text38584"
         style="font-size:45.4032px;line-height:1.25;word-spacing:0px;stroke-width:0.236475">
        <path
           d="m 96.490221,106.29199 h -7.759305 l -4.23438,-18.068165 q -0.775933,-3.192412 -1.308002,-6.673029 -0.532069,2.904209 -0.864612,4.433906 -0.332543,1.507528 -4.72211,20.307288 H 69.842476 L 61.794937,75.055124 h 6.62869 l 4.522584,20.174273 1.019798,4.877293 q 0.620747,-3.081562 1.197155,-5.874922 0.598577,-2.815531 4.433906,-19.176644 h 7.315945 l 3.946176,16.627148 q 0.46556,1.86224 1.574034,8.424418 l 0.554237,-2.571662 1.174974,-5.098992 3.768796,-17.380912 h 6.628678 z"
           style="font-weight:bold;fill:#ffffff"
           id="path71608" />
        <path
           d="m 111.63199,106.73538 q -3.48061,0 -5.43153,-1.88441 -1.95092,-1.90658 -1.95092,-5.342854 0,-3.724481 2.41648,-5.6754 2.43865,-1.950919 7.04991,-1.995258 l 5.1655,-0.08868 v -1.219324 q 0,-2.34997 -0.82027,-3.480616 -0.82027,-1.152816 -2.68251,-1.152816 -1.72923,0 -2.5495,0.798103 -0.7981,0.775934 -0.99763,2.593835 l -6.49567,-0.310373 q 0.59858,-3.502786 3.19241,-5.298518 2.61601,-1.817901 7.11642,-1.817901 4.54475,0 7.00557,2.239122 2.46082,2.239123 2.46082,6.362655 v 8.734795 q 0,2.01743 0.44339,2.79336 0.46556,0.75377 1.5297,0.75377 0.70942,0 1.37451,-0.13302 v 3.36977 q -0.55424,0.13302 -0.99763,0.24386 -0.44339,0.11085 -0.88678,0.17736 -0.44339,0.0665 -0.95329,0.11085 -0.48773,0.0443 -1.15282,0.0443 -2.34997,0 -3.48061,-1.15282 -1.10848,-1.15281 -1.33018,-3.39194 h -0.13301 q -2.61601,4.72211 -7.89236,4.72211 z m 7.24944,-11.550323 -3.19241,0.04434 q -2.17262,0.08868 -3.08157,0.487729 -0.90895,0.376882 -1.39668,1.174985 -0.46556,0.798103 -0.46556,2.128275 0,1.707054 0.77594,2.549494 0.7981,0.82027 2.1061,0.82027 1.46319,0 2.66035,-0.7981 1.21932,-0.7981 1.90658,-2.194782 0.68725,-1.41885 0.68725,-2.992886 z"
           style="font-weight:bold;fill:#ffffff"
           id="path71610" />
        <path
           d="m 137.48167,106.69104 q -2.74902,0 -4.23438,-1.48535 -1.48536,-1.50753 -1.48536,-4.54476 V 86.516771 H 128.7247 V 82.30456 h 3.3476 l 1.95092,-5.63106 h 3.90184 v 5.63106 h 4.54475 v 4.212211 h -4.54475 v 12.459276 q 0,1.751393 0.66508,2.593833 0.66509,0.82027 2.06177,0.82027 0.73159,0 2.08394,-0.31037 v 3.8575 q -2.30564,0.75376 -5.25418,0.75376 z"
           style="font-weight:bold;fill:#ffffff"
           id="path71612" />
        <path
           d="m 152.60129,106.69104 q -2.74902,0 -4.23438,-1.48535 -1.48536,-1.50753 -1.48536,-4.54476 V 86.516771 h -3.03723 V 82.30456 h 3.3476 l 1.95092,-5.63106 h 3.90184 v 5.63106 h 4.54475 v 4.212211 h -4.54475 v 12.459276 q 0,1.751393 0.66508,2.593833 0.66509,0.82027 2.06177,0.82027 0.7316,0 2.08394,-0.31037 v 3.8575 q -2.30563,0.75376 -5.25418,0.75376 z"
           style="font-weight:bold;fill:#ffffff"
           id="path71614" />
        <path
           d="M 161.57994,106.29199 V 73.392409 h 6.22964 v 32.899581 z"
           style="font-weight:bold;fill:#ffffff"
           id="path71616" />
        <path
           d="m 184.01551,106.73538 q -5.40937,0 -8.31358,-3.19241 -2.9042,-3.21458 -2.9042,-9.355541 0,-5.941435 2.94854,-9.133847 2.94855,-3.192412 8.35792,-3.192412 5.1655,0 7.89235,3.436277 2.72685,3.414108 2.72685,10.020628 v 0.177356 h -15.38565 q 0,3.502786 1.28583,5.298519 1.308,1.77356 3.70231,1.77356 3.30326,0 4.16787,-2.859868 l 5.87493,0.509898 q -2.5495,6.51784 -10.35317,6.51784 z m 0,-20.950203 q -2.19479,0 -3.39194,1.529697 -1.17499,1.529698 -1.24149,4.27872 h 9.3112 q -0.17736,-2.904209 -1.39668,-4.345228 -1.21933,-1.463189 -3.28109,-1.463189 z"
           style="font-weight:bold;fill:#ffffff"
           id="path71618" />
        <path
           d="m 224.4749,97.668045 q 0,4.323055 -3.39194,6.695195 -3.36977,2.37214 -9.51073,2.37214 -11.41731,0 -13.23521,-7.936689 l 4.10136,-0.820273 q 0.70943,2.815532 3.01506,4.145702 2.30563,1.308 6.27398,1.308 4.10136,0 6.31831,-1.39668 2.23913,-1.41885 2.23913,-4.1457 0,-1.529697 -0.70943,-2.482987 -0.68726,-0.95329 -1.95092,-1.574037 -1.26366,-0.620747 -3.01505,-1.041968 -1.7514,-0.421221 -3.87967,-0.908951 -3.70231,-0.820272 -5.63106,-1.640545 -1.90658,-0.820272 -3.01506,-1.817901 -1.10848,-1.019799 -1.70705,-2.37214 -0.57641,-1.352341 -0.57641,-3.103734 0,-4.012685 3.05939,-6.185299 3.08157,-2.172614 8.80131,-2.172614 5.32069,0 8.13622,1.640545 2.81553,1.618376 3.94617,5.542383 l -4.16787,0.731594 q -0.68726,-2.482987 -2.616,-3.591464 -1.92875,-1.130646 -5.34286,-1.130646 -3.74665,0 -5.71974,1.241494 -1.97309,1.241494 -1.97309,3.702311 0,1.44102 0.75377,2.39431 0.77593,0.93112 2.21695,1.596206 1.44102,0.642916 5.74191,1.596206 1.44102,0.332543 2.85987,0.687255 1.44102,0.332543 2.74902,0.820273 1.308,0.46556 2.43865,1.108477 1.15281,0.642916 1.99525,1.574036 0.84245,0.931121 1.30801,2.194784 0.48773,1.263663 0.48773,2.970717 z"
           style="font-family:'Liberation Sans';-inkscape-font-specification:'Liberation Sans';fill:#ffffff"
           id="path71620" />
        <path
           d="m 232.65546,94.187429 q 0,4.788618 1.50753,7.094251 1.50753,2.30563 4.54475,2.30563 2.12828,0 3.54713,-1.15282 1.44102,-1.15281 1.77356,-3.547121 l 4.03485,0.266034 q -0.46556,3.458447 -2.94854,5.520217 -2.48299,2.06176 -6.29615,2.06176 -5.03248,0 -7.69283,-3.17024 -2.63817,-3.19241 -2.63817,-9.289033 0,-6.052282 2.66034,-9.222525 2.66034,-3.192412 7.62632,-3.192412 3.68014,0 6.09662,1.906579 2.43865,1.90658 3.0594,5.254179 l -4.10137,0.310373 q -0.31037,-1.995257 -1.57403,-3.170242 -1.26367,-1.174986 -3.59147,-1.174986 -3.17024,0 -4.58909,2.106106 -1.41885,2.106105 -1.41885,7.09425 z"
           style="font-family:'Liberation Sans';-inkscape-font-specification:'Liberation Sans';fill:#ffffff"
           id="path71622" />
        <path
           d="M 252.40851,106.29199 V 87.891282 q 0,-2.527327 -0.13302,-5.586722 h 3.76882 q 0.17736,4.079194 0.17736,4.899467 h 0.0887 q 0.95329,-3.081565 2.19478,-4.212211 1.2415,-1.130646 3.50279,-1.130646 0.7981,0 1.61837,0.221695 v 3.657973 q -0.7981,-0.221696 -2.12827,-0.221696 -2.48299,0 -3.79099,2.150445 -1.308,2.128275 -1.308,6.11879 v 12.503613 z"
           style="font-family:'Liberation Sans';-inkscape-font-specification:'Liberation Sans';fill:#ffffff"
           id="path71624" />
        <path
           d="m 267.41728,77.205568 v -3.813159 h 3.99051 v 3.813159 z m 0,29.086422 V 82.30456 h 3.99051 v 23.98743 z"
           style="font-family:'Liberation Sans';-inkscape-font-specification:'Liberation Sans';fill:#ffffff"
           id="path71626" />
        <path
           d="m 297.81171,94.187429 q 0,12.547951 -8.82347,12.547951 -5.54239,0 -7.44897,-4.16787 h -0.11084 q 0.0887,0.17736 0.0887,3.76882 v 9.37771 h -3.99051 V 87.204027 q 0,-3.702312 -0.13302,-4.899467 h 3.8575 q 0.0222,0.08868 0.0665,0.642917 0.0443,0.532068 0.0887,1.662714 0.0665,1.130647 0.0665,1.551868 h 0.0887 q 1.06414,-2.216953 2.81553,-3.236752 1.7514,-1.041968 4.61127,-1.041968 4.4339,0 6.62869,2.970717 2.19478,2.970717 2.19478,9.333373 z m -4.19004,0.08868 q 0,-5.010314 -1.35234,-7.160759 -1.35234,-2.150444 -4.30089,-2.150444 -2.37214,0 -3.72448,0.997629 -1.33017,0.997629 -2.0396,3.125904 -0.68726,2.106105 -0.68726,5.498043 0,4.72211 1.50753,6.961228 1.50753,2.23913 4.89947,2.23913 2.97072,0 4.32306,-2.17262 1.37451,-2.19478 1.37451,-7.338111 z"
           style="font-family:'Liberation Sans';-inkscape-font-specification:'Liberation Sans';fill:#ffffff"
           id="path71628" />
        <path
           d="m 312.00021,106.11464 q -1.97309,0.53206 -4.03485,0.53206 -4.78862,0 -4.78862,-5.43153 V 85.208769 h -2.77119 V 82.30456 h 2.92638 l 1.17498,-5.365026 h 2.66035 v 5.365026 h 4.4339 v 2.904209 h -4.4339 v 15.141791 q 0,1.72922 0.55423,2.43865 0.57641,0.68725 1.97309,0.68725 0.7981,0 2.30563,-0.31037 z"
           style="font-family:'Liberation Sans';-inkscape-font-specification:'Liberation Sans';fill:#ffffff"
           id="path71630" />
      </g>
    </g>
  </g>
</svg>
