<?xml version="1.0" encoding="UTF-8"?>
<svg width="1280" height="475" version="1.1" viewBox="0 0 338.67 125.68" xmlns="http://www.w3.org/2000/svg">
<g transform="translate(-2.9551 .1894)">
<g transform="matrix(.58346 0 0 .58346 -96.422 -79.01)">
<path d="m216.05 204.92c-2.8412-4.5172-5.4606-9.1872-9.0279-13.199-1.9974-2.2462-4.1268-4.5581-6.656-6.2155-3.4205-2.2414-8.1382-3.1327-12.126-2.1912-1.4374 0.33937-2.8193 0.82929-4.1388 1.4901-0.33386 0.1672-0.66256 0.34329-0.99235 0.51795-0.15131 0.0801-0.58803 0.34991-0.44776 0.25172 0.45863-0.32104 1.2784 1.625 1.428 1.9056 1.5399 2.887 3.0464 5.856 4.9012 8.5568 0.24877 0.36222 0.50411 0.71995 0.76241 1.0754 5.7846 7.9611 16.209 11.966 26.297 7.8081" fill="#090"/>
<path d="m238.56 342.53c-16.002-21.466-30.323-45.828-32.602-73.065-1.6216-23.722 2.6791-47.689 11.936-69.566 1.5922-3.8516 3.3137-7.6496 5.1514-11.39" fill="none" stroke="#060" stroke-width="2.6"/>
<path d="m221.6 316.68c-12.618-18.143-13.56-44.763-5.1478-64.405 3.1698-6.9645 6.7307-13.724 10.083-20.602 4.4867-8.188 10.294-15.765 17.678-21.547" fill="none" stroke="#060" stroke-width="2.565"/>
<circle cx="223.05" cy="188.51" r="10.902" fill="#fc0"/>
<circle cx="211.95" cy="168.99" r="9.6733" fill="#fc0"/>
<ellipse cx="233.08" cy="168.87" rx="10.873" ry="10.694" fill="#fc0"/>
<circle cx="221.92" cy="148.59" r="9.8291" fill="#fc0"/>
<circle cx="235.98" cy="153.54" r="2.7705" fill="#fc0"/>
<path d="m239.55 213.39c4.4276-1.592 11.213-0.90829 15.679 0.38032 3.1583 0.91891 6.1576 2.5631 8.321 5.0836 1.5667 1.6857 2.8168 3.6279 3.8462 5.6794 0.47468 0.76094 1.7788 2.257-0.0315 2.1572-4.9968 0.78532-10.315 0.62454-14.965-1.5497-4.2408-2.0033-8.2337-4.7626-11.139-8.4874-0.79614-0.96262-1.225-2.1312-1.7112-3.2635" fill="#090"/>
<path d="m239.55 213.39c-1.2353-9.783 11.38-20.448 21.204-19.802 1.2504 8.0491-1.9964 12.242-6.851 16.653-4.7264 2.5738-9.1192 5.9835-14.353 3.1489" fill="#6c3"/>
</g>
<g stroke-width=".23648" aria-label="WattleScript">
<path d="m102.84 87.771h-7.7593l-4.2344-18.068q-0.77593-3.1924-1.308-6.673-0.53207 2.9042-0.86461 4.4339-0.33254 1.5075-4.7221 20.307h-7.7593l-8.0475-31.237h6.6287l4.5226 20.174 1.0198 4.8773q0.62075-3.0816 1.1972-5.8749 0.59858-2.8155 4.4339-19.177h7.3159l3.9462 16.627q0.46556 1.8622 1.574 8.4244l0.55424-2.5717 1.175-5.099 3.7688-17.381h6.6287z"/>
<path d="m117.98 88.214q-3.4806 0-5.4315-1.8844-1.9509-1.9066-1.9509-5.3428 0-3.7245 2.4165-5.6754 2.4386-1.9509 7.0499-1.9953l5.1655-0.08868v-1.2193q0-2.35-0.82027-3.4806-0.82027-1.1528-2.6825-1.1528-1.7292 0-2.5495 0.7981-0.7981 0.77593-0.99763 2.5938l-6.4957-0.31037q0.59858-3.5028 3.1924-5.2985 2.616-1.8179 7.1164-1.8179 4.5448 0 7.0056 2.2391t2.4608 6.3627v8.7348q0 2.0174 0.44339 2.7934 0.46556 0.75376 1.5297 0.75376 0.70942 0 1.3745-0.13302v3.3697q-0.55424 0.13302-0.99763 0.24386-0.44339 0.11085-0.88678 0.17736-0.44339 0.0665-0.95329 0.11085-0.48773 0.0443-1.1528 0.0443-2.35 0-3.4806-1.1528-1.1085-1.1528-1.3302-3.3919h-0.13301q-2.616 4.7221-7.8924 4.7221zm7.2494-11.55-3.1924 0.04434q-2.1726 0.08868-3.0816 0.48773-0.90895 0.37688-1.3967 1.175-0.46556 0.7981-0.46556 2.1283 0 1.7071 0.77594 2.5495 0.7981 0.82026 2.1061 0.82026 1.4632 0 2.6604-0.7981 1.2193-0.79809 1.9066-2.1948 0.68725-1.4188 0.68725-2.9929z"/>
<path d="m143.83 88.17q-2.749 0-4.2344-1.4853-1.4854-1.5075-1.4854-4.5447v-14.144h-3.0372v-4.2122h3.3476l1.9509-5.6311h3.9018v5.6311h4.5448v4.2122h-4.5448v12.459q0 1.7514 0.66508 2.5938 0.66509 0.82026 2.0618 0.82026 0.73159 0 2.0839-0.31037v3.8575q-2.3056 0.75376-5.2542 0.75376z"/>
<path d="m158.95 88.17q-2.749 0-4.2344-1.4853-1.4854-1.5075-1.4854-4.5447v-14.144h-3.0372v-4.2122h3.3476l1.9509-5.6311h3.9018v5.6311h4.5448v4.2122h-4.5448v12.459q0 1.7514 0.66508 2.5938 0.66509 0.82026 2.0618 0.82026 0.7316 0 2.0839-0.31037v3.8575q-2.3056 0.75376-5.2542 0.75376z"/>
<path d="m167.93 87.771v-32.9h6.2296v32.9z"/>
<path d="m190.37 88.214q-5.4094 0-8.3136-3.1924-2.9042-3.2146-2.9042-9.3555 0-5.9414 2.9485-9.1338 2.9486-3.1924 8.3579-3.1924 5.1655 0 7.8924 3.4363 2.7268 3.4141 2.7268 10.021v0.17736h-15.386q0 3.5028 1.2858 5.2985 1.308 1.7736 3.7023 1.7736 3.3033 0 4.1679-2.8599l5.8749 0.5099q-2.5495 6.5178-10.353 6.5178zm0-20.95q-2.1948 0-3.3919 1.5297-1.175 1.5297-1.2415 4.2787h9.3112q-0.17736-2.9042-1.3967-4.3452-1.2193-1.4632-3.2811-1.4632z"/>
<path d="m230.82 79.147q0 4.323-3.3919 6.6952-3.3698 2.3721-9.5107 2.3721-11.417 0-13.235-7.9367l4.1014-0.82027q0.70943 2.8155 3.0151 4.1457 2.3056 1.308 6.274 1.308 4.1014 0 6.3183-1.3967 2.2391-1.4188 2.2391-4.1457 0-1.5297-0.70943-2.483-0.68726-0.95329-1.9509-1.574t-3.015-1.042q-1.7514-0.42122-3.8797-0.90895-3.7023-0.82027-5.6311-1.6405-1.9066-0.82027-3.0151-1.8179-1.1085-1.0198-1.707-2.3721-0.57641-1.3523-0.57641-3.1037 0-4.0127 3.0594-6.1853 3.0816-2.1726 8.8013-2.1726 5.3207 0 8.1362 1.6405 2.8155 1.6184 3.9462 5.5424l-4.1679 0.73159q-0.68726-2.483-2.616-3.5915-1.9288-1.1306-5.3429-1.1306-3.7466 0-5.7197 1.2415t-1.9731 3.7023q0 1.441 0.75377 2.3943 0.77593 0.93112 2.217 1.5962 1.441 0.64292 5.7419 1.5962 1.441 0.33254 2.8599 0.68726 1.441 0.33254 2.749 0.82027 1.308 0.46556 2.4386 1.1085 1.1528 0.64292 1.9952 1.574 0.84245 0.93112 1.308 2.1948 0.48773 1.2637 0.48773 2.9707z"/>
<path d="m239.01 75.667q0 4.7886 1.5075 7.0942t4.5448 2.3056q2.1283 0 3.5471-1.1528 1.441-1.1528 1.7736-3.5471l4.0348 0.26603q-0.46556 3.4584-2.9485 5.5202-2.483 2.0617-6.2962 2.0617-5.0325 0-7.6928-3.1702-2.6382-3.1924-2.6382-9.289 0-6.0523 2.6603-9.2225 2.6603-3.1924 7.6263-3.1924 3.6801 0 6.0966 1.9066 2.4386 1.9066 3.0594 5.2542l-4.1014 0.31037q-0.31037-1.9953-1.574-3.1702-1.2637-1.175-3.5915-1.175-3.1702 0-4.5891 2.1061-1.4188 2.1061-1.4188 7.0942z"/>
<path d="m258.76 87.771v-18.401q0-2.5273-0.13302-5.5867h3.7688q0.17736 4.0792 0.17736 4.8995h0.0887q0.95329-3.0816 2.1948-4.2122 1.2415-1.1306 3.5028-1.1306 0.7981 0 1.6184 0.2217v3.658q-0.7981-0.2217-2.1283-0.2217-2.483 0-3.791 2.1504-1.308 2.1283-1.308 6.1188v12.504z"/>
<path d="m273.77 58.685v-3.8132h3.9905v3.8132zm0 29.086v-23.987h3.9905v23.987z"/>
<path d="m304.16 75.667q0 12.548-8.8235 12.548-5.5424 0-7.449-4.1678h-0.11084q0.0887 0.17736 0.0887 3.7688v9.3777h-3.9905v-28.51q0-3.7023-0.13302-4.8995h3.8575q0.0222 0.08868 0.0665 0.64292 0.0443 0.53207 0.0887 1.6627 0.0665 1.1306 0.0665 1.5519h0.0887q1.0641-2.217 2.8155-3.2368 1.7514-1.042 4.6113-1.042 4.4339 0 6.6287 2.9707t2.1948 9.3334zm-4.19 0.08868q0-5.0103-1.3523-7.1608-1.3523-2.1504-4.3009-2.1504-2.3721 0-3.7245 0.99763-1.3302 0.99763-2.0396 3.1259-0.68726 2.1061-0.68726 5.498 0 4.7221 1.5075 6.9612t4.8995 2.2391q2.9707 0 4.3231-2.1726 1.3745-2.1948 1.3745-7.3381z"/>
<path d="m318.35 87.594q-1.9731 0.53206-4.0348 0.53206-4.7886 0-4.7886-5.4315v-16.006h-2.7712v-2.9042h2.9264l1.175-5.365h2.6604v5.365h4.4339v2.9042h-4.4339v15.142q0 1.7292 0.55423 2.4386 0.57641 0.68725 1.9731 0.68725 0.7981 0 2.3056-0.31037z"/>
</g>
</g>
</svg>

